#!OML:ASF F:\VICON\USERDATA\INSTALL\rory3\rory3.ASF
:FULLY-SPECIFIED
:DEGREES
474
root 2.83884 16.7575 -0.150556 15.2361 4.73439 11.1083
lowerback -6.93754 1.72223 0.236824
upperback -2.11555 2.46949 -7.13209
thorax 2.0285 1.25363 -7.38741
lowerneck -3.13456 14.7325 5.07813
upperneck 47.9171 24.5504 -1.46042
head 20.4514 10.6605 2.66457
rclavicle 3.79182e-014 -1.54654e-013
rhumerus -36.5618 3.4579 -92.9114
rradius 42.372
rwrist -38.0143
rhand -7.47283 -48.8344
rfingers 7.12502
rthumb 18.416 -77.9827
lclavicle 3.79182e-014 -1.54654e-013
lhumerus -27.4794 -19.612 81.9399
lradius 40.9672
lwrist 74.0407
lhand -39.5037 -13.1299
lfingers 7.12502
lthumb -12.4893 16.4769
rfemur -51.4573 24.1874 -6.5849
rtibia 73.8197
rfoot 3.52489 10.5901
rtoes -42.5616
lfemur -32.7086 -6.98929 -35.8835
ltibia 38.2562
lfoot -16.3853 10.8404
ltoes 6.51167
475
root 2.83824 16.7601 -0.150438 15.2051 4.79188 11.0798
lowerback -6.88022 1.65803 0.236179
upperback -2.10161 2.38019 -7.07705
thorax 1.9969 1.20794 -7.33693
lowerneck -3.37027 14.8331 4.91288
upperneck 48.1331 24.7129 -1.27257
head 20.598 10.6899 2.8444
rclavicle 1.18774e-014 -2.26615e-014
rhumerus -36.5017 3.5097 -92.8383
rradius 42.3131
rwrist -37.6557
rhand -7.21335 -48.7673
rfingers 7.12502
rthumb 18.6656 -77.8917
lclavicle 1.18774e-014 -2.26615e-014
lhumerus -27.4983 -19.4157 81.9431
lradius 40.997
lwrist 73.941
lhand -39.5629 -13.1554
lfingers 7.12502
lthumb -12.5464 16.4479
rfemur -51.3756 24.1812 -6.49955
rtibia 73.8064
rfoot 3.5827 10.549
rtoes -42.5175
lfemur -32.6548 -6.98639 -35.8522
ltibia 38.232
lfoot -16.3194 10.8517
ltoes 6.26636
476
root 2.8386 16.7561 -0.153528 15.2373 4.78673 11.1098
lowerback -6.84464 1.65394 0.232018
upperback -2.15171 2.37142 -7.10124
thorax 1.92464 1.20156 -7.36282
lowerneck -3.28709 14.8269 4.95107
upperneck 48.1516 24.6898 -1.2538
head 20.5904 10.6934 2.83514
rclavicle 6.07784e-014 -3.45885e-014
rhumerus -36.5896 3.52872 -92.8683
rradius 42.3505
rwrist -37.731
rhand -7.96957 -48.6133
rfingers 7.12502
rthumb 17.9381 -77.8061
lclavicle 6.07784e-014 -3.45885e-014
lhumerus -27.6011 -19.4672 81.9464
lradius 41.0684
lwrist 73.9826
lhand -39.3939 -13.46
lfingers 7.12502
lthumb -12.3835 16.1532
rfemur -51.453 24.1268 -6.55484
rtibia 73.8214
rfoot 3.68612 10.5609
rtoes -42.3569
lfemur -32.632 -6.97666 -35.9063
ltibia 38.1798
lfoot -16.261 10.9362
ltoes 5.51566
477
root 2.84048 16.7524 -0.152347 15.2495 4.79141 11.1263
lowerback -6.8575 1.7129 0.292547
upperback -2.19879 2.44679 -7.17819
thorax 1.89852 1.23898 -7.47468
lowerneck -3.22201 14.7712 5.04378
upperneck 48.2151 24.5311 -1.11582
head 20.5883 10.6651 2.85217
rclavicle -1.71452e-014 -1.07344e-014
rhumerus -36.7004 3.37614 -92.9087
rradius 42.3511
rwrist -37.7911
rhand -8.46822 -48.6725
rfingers 7.12502
rthumb 17.4583 -77.9085
lclavicle -1.71452e-014 -1.07344e-014
lhumerus -27.6929 -19.7332 81.9599
lradius 41.1396
lwrist 74.0895
lhand -39.475 -13.4835
lfingers 7.12502
lthumb -12.4617 16.125
rfemur -51.4311 24.0857 -6.57029
rtibia 73.7961
rfoot 3.73035 10.4819
rtoes -41.9983
lfemur -32.5031 -6.9677 -35.9544
ltibia 38.0036
lfoot -16.1828 10.9726
ltoes 4.8744
478
root 2.84406 16.7584 -0.142756 15.1587 4.85764 11.2267
lowerback -6.89593 1.73231 0.264244
upperback -2.1406 2.48205 -7.24758
thorax 1.98715 1.25976 -7.52878
lowerneck -2.9296 14.6393 5.22972
upperneck 47.844 24.3405 -1.44124
head 20.3527 10.6245 2.58353
rclavicle 2.48481e-015 -3.4191e-014
rhumerus -36.6763 3.30785 -92.9655
rradius 42.3071
rwrist -38.0835
rhand -8.17966 -48.5909
rfingers 7.12502
rthumb 17.736 -77.802
lclavicle 2.48481e-015 -3.4191e-014
lhumerus -27.7039 -19.8703 81.962
lradius 41.2249
lwrist 74.0675
lhand -39.715 -13.2576
lfingers 7.12502
lthumb -12.6931 16.3367
rfemur -51.1141 24.0293 -6.55482
rtibia 73.7284
rfoot 3.57167 10.4325
rtoes -42.0348
lfemur -32.2781 -7.02966 -36.0621
ltibia 37.8821
lfoot -16.224 10.8696
ltoes 5.59945
479
root 2.85043 16.7814 -0.124479 14.7246 5.5213 11.5474
lowerback -6.71132 1.50273 0.138265
upperback -1.85169 2.1948 -7.29234
thorax 2.14341 1.12278 -7.53232
lowerneck -3.35663 14.7296 5.06647
upperneck 48.2517 24.4377 -1.04795
head 20.6306 10.63 2.88199
rclavicle -2.33572e-015 -2.46493e-014
rhumerus -36.5442 3.3276 -92.9847
rradius 42.2904
rwrist -38.3494
rhand -7.91488 -48.5627
rfingers 7.12502
rthumb 17.9907 -77.7506
lclavicle -2.33572e-015 -2.46493e-014
lhumerus -27.6578 -19.9103 81.9495
lradius 41.3216
lwrist 74.0639
lhand -39.7035 -13.3091
lfingers 7.12502
lthumb -12.682 16.2859
rfemur -49.877 23.7737 -6.27675
rtibia 73.5937
rfoot 3.19342 10.2627
rtoes -42.5444
lfemur -31.4365 -7.43102 -36.3265
ltibia 37.6979
lfoot -16.3518 10.6248
ltoes 6.26439
480
root 2.85474 16.7782 -0.133639 15.2499 4.83678 11.2319
lowerback -7.20873 1.7334 0.346963
upperback -2.04136 2.49551 -7.24929
thorax 2.27037 1.27356 -7.56988
lowerneck -3.13218 14.6545 5.12534
upperneck 47.8235 24.3828 -1.45608
head 20.3773 10.6102 2.61949
rclavicle -8.84592e-015 3.81667e-014
rhumerus -36.4869 3.37006 -92.9619
rradius 42.3537
rwrist -38.312
rhand -8.09795 -48.3028
rfingers 7.12502
rthumb 17.8146 -77.5068
lclavicle -8.84592e-015 3.81667e-014
lhumerus -27.6235 -19.8311 81.9309
lradius 41.3662
lwrist 74.0845
lhand -39.627 -13.3459
lfingers 7.12502
lthumb -12.6082 16.2536
rfemur -51.0193 24.0578 -6.60166
rtibia 73.5709
rfoot 3.29351 10.504
rtoes -42.9792
lfemur -32.2022 -7.08176 -36.0802
ltibia 37.6602
lfoot -16.3212 10.7672
ltoes 6.4549
481
root 2.85323 16.7803 -0.137097 15.2223 4.82224 11.1072
lowerback -7.13006 1.7046 0.435323
upperback -2.03534 2.44551 -7.17929
thorax 2.22645 1.24756 -7.55181
lowerneck -3.54488 14.7797 4.88523
upperneck 48.2569 24.5415 -1.03487
head 20.6504 10.6295 2.95031
rclavicle 1.55549e-014 1.31198e-014
rhumerus -36.494 3.52822 -92.9765
rradius 42.4095
rwrist -38.3535
rhand -8.40258 -47.6501
rfingers 7.12502
rthumb 17.5214 -76.8805
lclavicle 1.55549e-014 1.31198e-014
lhumerus -27.6017 -19.6468 81.9112
lradius 41.3813
lwrist 74.0593
lhand -39.472 -13.3344
lfingers 7.12502
lthumb -12.4587 16.2742
rfemur -51.0533 24.1753 -6.48462
rtibia 73.5349
rfoot 3.34914 10.4097
rtoes -43.0946
lfemur -32.2077 -7.06652 -35.9296
ltibia 37.6218
lfoot -16.2832 10.7511
ltoes 6.57965
482
root 2.85177 16.7787 -0.139316 15.2145 4.79774 11.1103
lowerback -7.09391 1.71132 0.41422
upperback -2.03918 2.4546 -7.1832
thorax 2.20282 1.25158 -7.54363
lowerneck -3.48188 14.7504 4.94107
upperneck 48.2177 24.5154 -1.12126
head 20.6396 10.6234 2.89049
rclavicle 2.28105e-014 1.74931e-014
rhumerus -36.4827 3.56293 -92.985
rradius 42.3717
rwrist -38.4046
rhand -8.46372 -47.2557
rfingers 7.12502
rthumb 17.4626 -76.4913
lclavicle 2.28105e-014 1.74931e-014
lhumerus -27.5875 -19.7068 81.925
lradius 41.3876
lwrist 74.0956
lhand -39.4967 -13.478
lfingers 7.12502
lthumb -12.4826 16.1292
rfemur -51.0714 24.2252 -6.49326
rtibia 73.5353
rfoot 3.27686 10.3755
rtoes -43.2895
lfemur -32.2551 -7.04285 -35.9322
ltibia 37.7123
lfoot -16.3125 10.7592
ltoes 6.72303
483
root 2.85381 16.7777 -0.13641 15.2565 4.79493 11.0979
lowerback -7.21986 1.73582 0.46848
upperback -2.04395 2.48874 -7.20776
thorax 2.27614 1.27045 -7.59601
lowerneck -3.50303 14.7327 4.93172
upperneck 48.2591 24.4642 -1.05067
head 20.6502 10.6072 2.91865
rclavicle -2.33572e-014 7.23576e-014
rhumerus -36.5481 3.4977 -93.0054
rradius 42.5107
rwrist -38.5351
rhand -8.872 -47.1389
rfingers 7.12502
rthumb 17.0696 -76.409
lclavicle -2.33572e-014 7.23576e-014
lhumerus -27.6061 -19.8087 81.9291
lradius 41.4077
lwrist 74.1124
lhand -39.9514 -13.3143
lfingers 7.12502
lthumb -12.9209 16.2657
rfemur -51.058 24.2036 -6.47865
rtibia 73.5079
rfoot 3.01582 10.4795
rtoes -43.8333
lfemur -32.2898 -7.04143 -35.9328
ltibia 37.7236
lfoot -16.3235 10.7844
ltoes 6.71445
484
root 2.85703 16.7799 -0.130137 15.262 4.85297 11.0943
lowerback -7.34498 1.71193 0.507347
upperback -2.03091 2.45893 -7.20495
thorax 2.35692 1.25728 -7.61604
lowerneck -3.46748 14.7287 4.92956
upperneck 48.2716 24.4581 -1.04824
head 20.6485 10.6059 2.91529
rclavicle 2.48481e-015 -1.66979e-014
rhumerus -36.6262 3.41531 -92.9743
rradius 42.6547
rwrist -38.2954
rhand -8.80478 -47.281
rfingers 7.12502
rthumb 17.1343 -76.5455
lclavicle 2.48481e-015 -1.66979e-014
lhumerus -27.6649 -19.7552 81.9191
lradius 41.4506
lwrist 74.0694
lhand -39.8053 -13.317
lfingers 7.12502
lthumb -12.7801 16.2718
rfemur -50.9549 24.1682 -6.43286
rtibia 73.4841
rfoot 2.91554 10.5021
rtoes -43.9992
lfemur -32.2625 -7.09857 -35.9212
ltibia 37.727
lfoot -16.3619 10.7422
ltoes 6.83794
485
root 2.85945 16.7817 -0.126948 15.2433 4.90119 11.1087
lowerback -7.35779 1.68809 0.507201
upperback -2.0312 2.42723 -7.2006
thorax 2.3592 1.2413 -7.61425
lowerneck -3.23832 14.7034 5.06982
upperneck 48.079 24.4612 -1.29671
head 20.5444 10.6252 2.74644
rclavicle -4.76089e-014 2.18663e-014
rhumerus -36.6042 3.3722 -92.923
rradius 42.5466
rwrist -37.9533
rhand -8.16208 -47.4689
rfingers 7.12502
rthumb 17.7529 -76.6785
lclavicle -4.76089e-014 2.18663e-014
lhumerus -27.7273 -19.7287 81.9337
lradius 41.4919
lwrist 74.0584
lhand -39.4345 -13.4232
lfingers 7.12502
lthumb -12.4226 16.1876
rfemur -50.8905 24.15 -6.42478
rtibia 73.495
rfoot 3.07782 10.377
rtoes -43.5214
lfemur -32.2161 -7.14142 -35.9284
ltibia 37.7506
lfoot -16.4288 10.6832
ltoes 7.1647
486
root 2.85809 16.7721 -0.132966 15.2776 4.87979 11.1196
lowerback -7.27362 1.65368 0.471814
upperback -2.03865 2.37918 -7.17446
thorax 2.29532 1.21536 -7.57175
lowerneck -3.27819 14.7327 5.04392
upperneck 48.0044 24.542 -1.39641
head 20.5288 10.6415 2.71974
rclavicle 1.21259e-014 -1.78906e-014
rhumerus -36.5134 3.5594 -92.9489
rradius 42.5024
rwrist -38.2024
rhand -8.24562 -47.569
rfingers 7.12502
rthumb 17.6725 -76.7858
lclavicle 1.21259e-014 -1.78906e-014
lhumerus -27.68 -19.6667 81.9375
lradius 41.4887
lwrist 74.1178
lhand -39.447 -13.3228
lfingers 7.12502
lthumb -12.4347 16.2873
rfemur -51.0323 24.0916 -6.46918
rtibia 73.5769
rfoot 3.09272 10.4127
rtoes -43.4908
lfemur -32.2665 -7.07038 -35.9773
ltibia 37.7603
lfoot -16.2626 10.8446
ltoes 5.68881
